<?xml version="1.0" encoding="UTF-8" standalone="no"?>
<!DOCTYPE svg PUBLIC "-//W3C//DTD SVG 1.1//EN" "http://www.w3.org/Graphics/SVG/1.1/DTD/svg11.dtd">
<svg version="1.1" xmlns="http://www.w3.org/2000/svg" xmlns:xlink="http://www.w3.org/1999/xlink" preserveAspectRatio="xMidYMid meet" viewBox="0 0 640 640" width="640" height="640"><defs><path d="M638.06 58.18L549.82 58.18L549.82 2.91L90.18 2.91L90.18 58.18L2.91 58.18L2.91 535.27L247.27 535.27L218.18 592.48L152.24 592.48L152.24 638.06L489.7 638.06L489.7 592.48L423.76 592.48L394.67 535.27L638.06 535.27L638.06 58.18ZM254.06 373.33C216.24 373.33 184.24 402.42 180.36 440.24C177.13 440.24 160.97 440.24 131.88 440.24L131.88 436.36C147.59 434.04 156.32 432.74 158.06 432.48C161.94 415.03 163.88 408.24 175.52 389.82C174.42 388.4 168.92 381.28 159.03 368.48L175.52 352C188.32 361.89 195.43 367.39 196.85 368.48C212.36 358.79 219.15 354.91 238.55 351.03C238.8 349.28 240.1 340.56 242.42 324.85L265.7 324.85C268.02 340.56 269.32 349.28 269.58 351.03C286.06 354.91 293.82 356.85 311.27 368.48C312.69 367.39 319.81 361.89 332.61 352L349.09 368.48C339.2 381.28 333.71 388.4 332.61 389.82C342.3 405.33 346.18 412.12 350.06 432.48C351.81 432.74 360.53 434.04 376.24 436.36L376.24 440.24L327.76 440.24C303.84 395.64 279.27 373.33 254.06 373.33ZM193.94 440.24C197.82 411.15 223.03 387.88 253.09 387.88C283.15 387.88 308.36 411.15 312.24 440.24C288.58 440.24 205.77 440.24 193.94 440.24ZM350.06 391.76C351.22 390.21 357.04 382.45 367.52 368.48L332.61 333.58C318.64 344.05 310.88 349.87 309.33 351.03C300.61 346.18 291.88 342.3 281.21 339.39C280.95 337.45 279.66 327.76 277.33 310.3L227.88 310.3C225.55 327.76 224.26 337.45 224 339.39C214.3 342.3 204.61 346.18 195.88 351.03C194.33 349.87 186.57 344.05 172.61 333.58L138.67 368.48C149.14 382.45 154.96 390.21 156.12 391.76C151.27 400.48 147.39 410.18 144.48 419.88C142.55 420.14 132.85 421.43 115.39 423.76L115.39 440.24L103.76 440.24L103.76 85.33L533.33 85.33L533.33 440.24L389.82 440.24L389.82 423.76L361.7 419.88C357.17 406.95 353.29 397.58 350.06 391.76ZM56.24 440.24L56.24 111.52L90.18 111.52L90.18 440.24L56.24 440.24ZM583.76 111.52L583.76 440.24L548.85 440.24L548.85 111.52L583.76 111.52ZM534.3 71.76L104.73 71.76L104.73 17.45L534.3 17.45L534.3 71.76ZM17.45 72.73L90.18 72.73L90.18 96.97L41.7 96.97L41.7 454.79L599.27 454.79L599.27 96.97L549.82 96.97L549.82 72.73L623.52 72.73L623.52 520.73L385.94 520.73L385.94 520.73L254.06 520.73L254.06 520.73L17.45 520.73L17.45 72.73ZM474.18 623.52L165.82 623.52C165.82 613.62 165.82 608.13 165.82 607.03C233.7 607.03 406.3 607.03 474.18 607.03C474.18 609.23 474.18 614.72 474.18 623.52ZM233.7 592.48L262.79 535.27L377.21 535.27L406.3 592.48L233.7 592.48Z" id="i8uMoJOLe"></path><path d="M346.18 487.76C346.18 473.21 334.55 461.58 320 461.58C305.45 461.58 293.82 473.21 293.82 487.76C293.82 502.3 305.45 513.94 320 513.94C334.55 513.94 346.18 502.3 346.18 487.76ZM331.64 488.73C331.64 494.55 326.79 500.36 320 500.36C313.21 500.36 308.36 495.52 308.36 488.73C308.36 481.94 314.18 477.09 320 477.09C325.82 477.09 331.64 481.94 331.64 488.73Z" id="anPqoHUYC"></path><path d="M123.15 200.73L202.67 281.21L213.33 270.55L143.52 200.73L213.33 130.91L202.67 120.24L123.15 200.73Z" id="cnedtWbAM"></path><path d="M506.18 200.73L426.67 120.24L416 130.91L485.82 200.73L416 270.55L426.67 281.21L506.18 200.73Z" id="anbBlDwxT"></path><path d="M164.85 44.61C164.85 32.97 156.12 24.24 144.48 24.24C132.85 24.24 124.12 32.97 124.12 44.61C124.12 56.24 133.82 64.97 144.48 64.97C156.12 64.97 164.85 56.24 164.85 44.61ZM150.3 44.61C150.3 47.52 147.39 50.42 144.48 50.42C141.58 50.42 138.67 47.52 138.67 44.61C138.67 41.7 141.58 38.79 144.48 38.79C147.39 38.79 150.3 41.7 150.3 44.61Z" id="abdt2mUiS"></path><path d="M217.21 44.61C217.21 32.97 208.48 24.24 196.85 24.24C185.21 24.24 176.48 32.97 176.48 44.61C176.48 56.24 185.21 64.97 196.85 64.97C208.48 64.97 217.21 56.24 217.21 44.61ZM202.67 44.61C202.67 47.52 199.76 50.42 196.85 50.42C193.94 50.42 191.03 47.52 191.03 44.61C191.03 41.7 192.97 38.79 196.85 38.79C199.76 38.79 202.67 41.7 202.67 44.61Z" id="b7VzRWEsXt"></path><path d="M268.61 44.61C268.61 32.97 259.88 24.24 248.24 24.24C236.61 24.24 227.88 32.97 227.88 44.61C227.88 56.24 237.58 64.97 248.24 64.97C259.88 64.97 268.61 56.24 268.61 44.61ZM254.06 44.61C254.06 47.52 252.12 50.42 248.24 50.42C244.36 50.42 242.42 47.52 242.42 44.61C242.42 41.7 245.33 38.79 248.24 38.79C251.15 38.79 254.06 41.7 254.06 44.61Z" id="a2DNbdiCsT"></path><path d="M261.82 155.15C261.82 155.15 261.82 155.15 261.82 155.15C261.82 163.88 261.82 168.73 261.82 169.7C261.82 169.7 261.82 169.7 261.82 169.7C236.22 169.7 222 169.7 219.15 169.7C219.15 169.7 219.15 169.7 219.15 169.7C219.15 160.97 219.15 156.12 219.15 155.15C219.15 155.15 219.15 155.15 219.15 155.15C244.75 155.15 258.97 155.15 261.82 155.15Z" id="g6eK3enZEN"></path><path d="M305.45 155.15C305.45 155.15 305.45 155.15 305.45 155.15C305.45 163.88 305.45 168.73 305.45 169.7C305.45 169.7 305.45 169.7 305.45 169.7C289.75 169.7 281.02 169.7 279.27 169.7C279.27 169.7 279.27 169.7 279.27 169.7C279.27 160.97 279.27 156.12 279.27 155.15C279.27 155.15 279.27 155.15 279.27 155.15C294.98 155.15 303.71 155.15 305.45 155.15Z" id="abCFqlRnH"></path><path d="M376.24 155.15C376.24 155.15 376.24 155.15 376.24 155.15C376.24 163.88 376.24 168.73 376.24 169.7C376.24 169.7 376.24 169.7 376.24 169.7C344.82 169.7 327.37 169.7 323.88 169.7C323.88 169.7 323.88 169.7 323.88 169.7C323.88 160.97 323.88 156.12 323.88 155.15C323.88 155.15 323.88 155.15 323.88 155.15C355.3 155.15 372.75 155.15 376.24 155.15Z" id="a1CDHerigj"></path><path d="M410.18 155.15C410.18 155.15 410.18 155.15 410.18 155.15C410.18 163.88 410.18 168.73 410.18 169.7C410.18 169.7 410.18 169.7 410.18 169.7C400.29 169.7 394.8 169.7 393.7 169.7C393.7 169.7 393.7 169.7 393.7 169.7C393.7 160.97 393.7 156.12 393.7 155.15C393.7 155.15 393.7 155.15 393.7 155.15C403.59 155.15 409.08 155.15 410.18 155.15Z" id="l2pUMUaDP"></path><path d="M242.42 193.94C242.42 193.94 242.42 193.94 242.42 193.94C242.42 202.67 242.42 207.52 242.42 208.48C242.42 208.48 242.42 208.48 242.42 208.48C228.46 208.48 220.7 208.48 219.15 208.48C219.15 208.48 219.15 208.48 219.15 208.48C219.15 199.76 219.15 194.91 219.15 193.94C219.15 193.94 219.15 193.94 219.15 193.94C233.12 193.94 240.87 193.94 242.42 193.94Z" id="a3vuVn4Uak"></path><path d="M305.45 193.94C305.45 193.94 305.45 193.94 305.45 193.94C305.45 202.67 305.45 207.52 305.45 208.48C305.45 208.48 305.45 208.48 305.45 208.48C278.11 208.48 262.92 208.48 259.88 208.48C259.88 208.48 259.88 208.48 259.88 208.48C259.88 199.76 259.88 194.91 259.88 193.94C259.88 193.94 259.88 193.94 259.88 193.94C287.22 193.94 302.42 193.94 305.45 193.94Z" id="b2fz2LYQix"></path><path d="M337.45 193.94C337.45 193.94 337.45 193.94 337.45 193.94C337.45 202.67 337.45 207.52 337.45 208.48C337.45 208.48 337.45 208.48 337.45 208.48C329.31 208.48 324.78 208.48 323.88 208.48C323.88 208.48 323.88 208.48 323.88 208.48C323.88 199.76 323.88 194.91 323.88 193.94C323.88 193.94 323.88 193.94 323.88 193.94C332.02 193.94 336.55 193.94 337.45 193.94Z" id="aTluV5NjV"></path><path d="M410.18 193.94C410.18 193.94 410.18 193.94 410.18 193.94C410.18 202.67 410.18 207.52 410.18 208.48C410.18 208.48 410.18 208.48 410.18 208.48C377.02 208.48 358.59 208.48 354.91 208.48C354.91 208.48 354.91 208.48 354.91 208.48C354.91 199.76 354.91 194.91 354.91 193.94C354.91 193.94 354.91 193.94 354.91 193.94C388.07 193.94 406.5 193.94 410.18 193.94Z" id="aiudGlTfr"></path><path d="M261.82 231.76C261.82 231.76 261.82 231.76 261.82 231.76C261.82 240.48 261.82 245.33 261.82 246.3C261.82 246.3 261.82 246.3 261.82 246.3C236.22 246.3 222 246.3 219.15 246.3C219.15 246.3 219.15 246.3 219.15 246.3C219.15 237.58 219.15 232.73 219.15 231.76C219.15 231.76 219.15 231.76 219.15 231.76C244.75 231.76 258.97 231.76 261.82 231.76Z" id="e1qUjbwfeg"></path><path d="M305.45 231.76C305.45 231.76 305.45 231.76 305.45 231.76C305.45 240.48 305.45 245.33 305.45 246.3C305.45 246.3 305.45 246.3 305.45 246.3C289.75 246.3 281.02 246.3 279.27 246.3C279.27 246.3 279.27 246.3 279.27 246.3C279.27 237.58 279.27 232.73 279.27 231.76C279.27 231.76 279.27 231.76 279.27 231.76C294.98 231.76 303.71 231.76 305.45 231.76Z" id="a11PagbG5S"></path><path d="M356.85 231.76C356.85 231.76 356.85 231.76 356.85 231.76C356.85 240.48 356.85 245.33 356.85 246.3C356.85 246.3 356.85 246.3 356.85 246.3C337.07 246.3 326.08 246.3 323.88 246.3C323.88 246.3 323.88 246.3 323.88 246.3C323.88 237.58 323.88 232.73 323.88 231.76C323.88 231.76 323.88 231.76 323.88 231.76C343.66 231.76 354.65 231.76 356.85 231.76Z" id="b3oDei1pXT"></path><path d="M410.18 231.76C410.18 231.76 410.18 231.76 410.18 231.76C410.18 240.48 410.18 245.33 410.18 246.3C410.18 246.3 410.18 246.3 410.18 246.3C388.65 246.3 376.69 246.3 374.3 246.3C374.3 246.3 374.3 246.3 374.3 246.3C374.3 237.58 374.3 232.73 374.3 231.76C374.3 231.76 374.3 231.76 374.3 231.76C395.83 231.76 407.79 231.76 410.18 231.76Z" id="hvAOPCB4x"></path><path d="M487.76 415.03L513.94 377.21L470.3 347.15L495.52 310.3L387.88 318.06L418.91 421.82L444.12 384.97L487.76 415.03ZM449.94 351.03L493.58 381.09L483.88 394.67L440.24 364.61L423.76 387.88L407.27 330.67L466.42 326.79L449.94 351.03Z" id="apf4Urk0r"></path></defs><g><g><g><use xlink:href="#i8uMoJOLe" opacity="1" fill="#000100" fill-opacity="1"></use><g><use xlink:href="#i8uMoJOLe" opacity="1" fill-opacity="0" stroke="#000000" stroke-width="1" stroke-opacity="0"></use></g></g><g><use xlink:href="#anPqoHUYC" opacity="1" fill="#000100" fill-opacity="1"></use><g><use xlink:href="#anPqoHUYC" opacity="1" fill-opacity="0" stroke="#000000" stroke-width="1" stroke-opacity="0"></use></g></g><g><use xlink:href="#cnedtWbAM" opacity="1" fill="#000100" fill-opacity="1"></use><g><use xlink:href="#cnedtWbAM" opacity="1" fill-opacity="0" stroke="#000000" stroke-width="1" stroke-opacity="0"></use></g></g><g><use xlink:href="#anbBlDwxT" opacity="1" fill="#000100" fill-opacity="1"></use><g><use xlink:href="#anbBlDwxT" opacity="1" fill-opacity="0" stroke="#000000" stroke-width="1" stroke-opacity="0"></use></g></g><g><use xlink:href="#abdt2mUiS" opacity="1" fill="#000100" fill-opacity="1"></use><g><use xlink:href="#abdt2mUiS" opacity="1" fill-opacity="0" stroke="#000000" stroke-width="1" stroke-opacity="0"></use></g></g><g><use xlink:href="#b7VzRWEsXt" opacity="1" fill="#000100" fill-opacity="1"></use><g><use xlink:href="#b7VzRWEsXt" opacity="1" fill-opacity="0" stroke="#000000" stroke-width="1" stroke-opacity="0"></use></g></g><g><use xlink:href="#a2DNbdiCsT" opacity="1" fill="#000100" fill-opacity="1"></use><g><use xlink:href="#a2DNbdiCsT" opacity="1" fill-opacity="0" stroke="#000000" stroke-width="1" stroke-opacity="0"></use></g></g><g><use xlink:href="#g6eK3enZEN" opacity="1" fill="#00af60" fill-opacity="1"></use><g><use xlink:href="#g6eK3enZEN" opacity="1" fill-opacity="0" stroke="#000000" stroke-width="1" stroke-opacity="0"></use></g></g><g><use xlink:href="#abCFqlRnH" opacity="1" fill="#000100" fill-opacity="1"></use><g><use xlink:href="#abCFqlRnH" opacity="1" fill-opacity="0" stroke="#000000" stroke-width="1" stroke-opacity="0"></use></g></g><g><use xlink:href="#a1CDHerigj" opacity="1" fill="#00af60" fill-opacity="1"></use><g><use xlink:href="#a1CDHerigj" opacity="1" fill-opacity="0" stroke="#000000" stroke-width="1" stroke-opacity="0"></use></g></g><g><use xlink:href="#l2pUMUaDP" opacity="1" fill="#000100" fill-opacity="1"></use><g><use xlink:href="#l2pUMUaDP" opacity="1" fill-opacity="0" stroke="#000000" stroke-width="1" stroke-opacity="0"></use></g></g><g><use xlink:href="#a3vuVn4Uak" opacity="1" fill="#000100" fill-opacity="1"></use><g><use xlink:href="#a3vuVn4Uak" opacity="1" fill-opacity="0" stroke="#000000" stroke-width="1" stroke-opacity="0"></use></g></g><g><use xlink:href="#b2fz2LYQix" opacity="1" fill="#00af60" fill-opacity="1"></use><g><use xlink:href="#b2fz2LYQix" opacity="1" fill-opacity="0" stroke="#000000" stroke-width="1" stroke-opacity="0"></use></g></g><g><use xlink:href="#aTluV5NjV" opacity="1" fill="#000100" fill-opacity="1"></use><g><use xlink:href="#aTluV5NjV" opacity="1" fill-opacity="0" stroke="#000000" stroke-width="1" stroke-opacity="0"></use></g></g><g><use xlink:href="#aiudGlTfr" opacity="1" fill="#00af60" fill-opacity="1"></use><g><use xlink:href="#aiudGlTfr" opacity="1" fill-opacity="0" stroke="#000000" stroke-width="1" stroke-opacity="0"></use></g></g><g><use xlink:href="#e1qUjbwfeg" opacity="1" fill="#00af60" fill-opacity="1"></use><g><use xlink:href="#e1qUjbwfeg" opacity="1" fill-opacity="0" stroke="#000000" stroke-width="1" stroke-opacity="0"></use></g></g><g><use xlink:href="#a11PagbG5S" opacity="1" fill="#010101" fill-opacity="1"></use><g><use xlink:href="#a11PagbG5S" opacity="1" fill-opacity="0" stroke="#000000" stroke-width="1" stroke-opacity="0"></use></g></g><g><use xlink:href="#b3oDei1pXT" opacity="1" fill="#000100" fill-opacity="1"></use><g><use xlink:href="#b3oDei1pXT" opacity="1" fill-opacity="0" stroke="#000000" stroke-width="1" stroke-opacity="0"></use></g></g><g><use xlink:href="#hvAOPCB4x" opacity="1" fill="#00af60" fill-opacity="1"></use><g><use xlink:href="#hvAOPCB4x" opacity="1" fill-opacity="0" stroke="#000000" stroke-width="1" stroke-opacity="0"></use></g></g><g><use xlink:href="#apf4Urk0r" opacity="1" fill="#000100" fill-opacity="1"></use><g><use xlink:href="#apf4Urk0r" opacity="1" fill-opacity="0" stroke="#000000" stroke-width="1" stroke-opacity="0"></use></g></g></g></g></svg>